<svg fill="none" height="326" viewBox="0 0 786 326" width="786" xmlns="http://www.w3.org/2000/svg" xmlns:xlink="http://www.w3.org/1999/xlink"><filter id="a" color-interpolation-filters="sRGB" filterUnits="userSpaceOnUse" height="235.359" width="738.86" x="24.3188" y="0"><feFlood flood-opacity="0" result="BackgroundImageFix"/><feColorMatrix in="SourceAlpha" result="hardAlpha" type="matrix" values="0 0 0 0 0 0 0 0 0 0 0 0 0 0 0 0 0 0 127 0"/><feOffset dy="6"/><feGaussianBlur stdDeviation="10"/><feColorMatrix type="matrix" values="0 0 0 0 0 0 0 0 0 0 0 0 0 0 0 0 0 0 0.25 0"/><feBlend in2="BackgroundImageFix" mode="normal" result="effect1_dropShadow_71_585"/><feBlend in="SourceGraphic" in2="effect1_dropShadow_71_585" mode="normal" result="shape"/></filter><filter id="b" color-interpolation-filters="sRGB" filterUnits="userSpaceOnUse" height="199.89" width="620.069" x="23.9307" y="125.664"><feFlood flood-opacity="0" result="BackgroundImageFix"/><feColorMatrix in="SourceAlpha" result="hardAlpha" type="matrix" values="0 0 0 0 0 0 0 0 0 0 0 0 0 0 0 0 0 0 127 0"/><feOffset dy="5"/><feGaussianBlur stdDeviation="10"/><feColorMatrix type="matrix" values="0 0 0 0 0 0 0 0 0 0 0 0 0 0 0 0 0 0 0.25 0"/><feBlend in2="BackgroundImageFix" mode="normal" result="effect1_dropShadow_71_585"/><feBlend in="SourceGraphic" in2="effect1_dropShadow_71_585" mode="normal" result="shape"/></filter><g filter="url(#a)"><path d="m0 0h703.738v112.644h-703.738z" fill="#fff" transform="matrix(.993068 -.117537 0 1 44.3188 96.7155)"/></g><path d="m111.925 141.799c4.536-.537 8.088.114 10.657 1.952 2.609 1.833 3.913 4.71 3.913 8.631 0 1.9-.341 3.658-1.023 5.275-.642 1.571-1.606 2.979-2.89 4.222-1.245 1.198-2.77 2.187-4.576 2.967-1.806.779-3.833 1.302-6.081 1.568l-14.5107 1.718v-39.167l26.0107-3.078v8.366l-16.678 1.974v6.185zm5.118 11.702c0-.041 0-.101 0-.182 0-1.091-.382-1.915-1.144-2.472-.763-.597-1.907-.805-3.432-.624l-5.72.677v7.639l5.72-.677c1.525-.18 2.649-.657 3.371-1.43.763-.777 1.164-1.754 1.205-2.931zm33.416 9.141c-3.091.365-5.88.17-8.369-.586-2.489-.757-4.616-1.94-6.382-3.549-1.766-1.651-3.131-3.652-4.094-6.003-.924-2.397-1.385-5.03-1.385-7.9s.502-5.597 1.505-8.181c1.004-2.625 2.408-4.954 4.215-6.987 1.806-2.073 3.933-3.78 6.382-5.12 2.489-1.346 5.198-2.192 8.128-2.539 3.131-.37 5.941-.177 8.429.579 2.529.752 4.677 1.953 6.443 3.603 1.766 1.61 3.111 3.613 4.034 6.01.963 2.351 1.445 4.962 1.445 7.832s-.502 5.617-1.505 8.242c-1.004 2.584-2.409 4.913-4.215 6.986-1.806 2.033-3.954 3.722-6.442 5.067-2.489 1.346-5.219 2.194-8.189 2.546zm0-8.428c1.646-.195 3.131-.674 4.456-1.437 1.364-.767 2.508-1.731 3.432-2.892.963-1.205 1.706-2.566 2.227-4.083.522-1.517.783-3.144.783-4.882s-.261-3.304-.783-4.697c-.521-1.394-1.264-2.559-2.227-3.496-.924-.982-2.068-1.695-3.432-2.14-1.325-.45-2.81-.577-4.456-.382s-3.131.674-4.455 1.437c-1.325.763-2.449 1.745-3.372 2.945-.923 1.16-1.646 2.499-2.168 4.016-.521 1.517-.782 3.144-.782 4.882s.261 3.304.782 4.697c.522 1.394 1.245 2.581 2.168 3.563.923.942 2.047 1.638 3.372 2.087 1.324.45 2.809.577 4.455.382zm61.003-38.747v39.166l-9.452 1.119v-15.642l-15.354 1.817v15.642l-9.453 1.119v-39.167l9.453-1.118v14.975l15.354-1.817v-14.976zm41.358-4.895-15.715 31.265-1.746 3.299c-1.405 2.672-3.231 4.727-5.479 6.165-2.248 1.439-5.158 2.369-8.73 2.792v-8.367c1.766-.209 3.09-.709 3.973-1.501.924-.796 1.686-1.776 2.288-2.938l1.445-2.839-12.945-23.508 10.838-1.283 7.887 16.164 8.068-18.052zm22.588 37.281c-3.131.371-5.961.2-8.49-.511-2.528-.711-4.676-1.872-6.442-3.481-1.726-1.615-3.071-3.598-4.034-5.95-.923-2.397-1.385-5.07-1.385-8.021 0-2.829.482-5.554 1.445-8.174 1.004-2.625 2.409-4.953 4.215-6.986 1.806-2.073 3.954-3.783 6.442-5.128 2.489-1.386 5.239-2.257 8.249-2.613 3.733-.442 6.964-.057 9.694 1.156 2.729 1.173 4.897 2.957 6.502 5.354l-7.225 5.524c-1.003-1.336-2.228-2.323-3.673-2.961-1.445-.677-3.171-.898-5.178-.66-1.766.209-3.331.718-4.696 1.526-1.365.768-2.529 1.754-3.492 2.96-.923 1.2-1.646 2.559-2.168 4.076-.481 1.512-.722 3.117-.722 4.814 0 1.698.241 3.246.722 4.644.522 1.393 1.265 2.579 2.228 3.556.964.937 2.128 1.628 3.492 2.073 1.365.444 2.91.565 4.636.36 2.288-.271 4.155-.976 5.6-2.118 1.445-1.181 2.589-2.529 3.432-4.044l7.165 3.578c-.683 1.375-1.546 2.669-2.589 3.884-1.044 1.215-2.248 2.327-3.613 3.338-1.365.97-2.91 1.779-4.636 2.428-1.686.685-3.512 1.143-5.479 1.376zm67.643-16.615v16.976l-8.851 1.047v-9.094l-20.832 2.466v9.094l-8.851 1.048v-16.977l5.6-.662c.923-3.222 1.605-6.779 2.047-10.671.441-3.892.722-8.412.843-13.56l.18-7.478 25.349-3v31.345zm-20.892-20.385c-.161 4.869-.442 9.187-.843 12.953-.362 3.721-.944 7.125-1.746 10.211l9.693-1.148v-22.857zm44.266 26.227c-3.091.366-5.881.171-8.369-.585-2.489-.757-4.616-1.94-6.383-3.55-1.766-1.65-3.13-3.651-4.094-6.002-.923-2.397-1.385-5.03-1.385-7.9s.502-5.597 1.506-8.182c1.003-2.624 2.408-4.953 4.214-6.986 1.807-2.073 3.934-3.78 6.382-5.1204 2.489-1.3455 5.199-2.1916 8.129-2.5384 3.131-.3706 5.94-.1777 8.429.5787 2.529.7516 4.676 1.9525 6.442 3.6031 1.767 1.61 3.111 3.613 4.034 6.01.964 2.351 1.445 4.962 1.445 7.832 0 2.869-.501 5.617-1.505 8.242-1.003 2.584-2.408 4.913-4.214 6.986-1.807 2.032-3.954 3.721-6.443 5.067-2.488 1.345-5.218 2.194-8.188 2.545zm0-8.427c1.645-.195 3.131-.674 4.455-1.437 1.365-.768 2.509-1.732 3.432-2.892.963-1.205 1.706-2.566 2.228-4.083s.783-3.144.783-4.883c0-1.738-.261-3.303-.783-4.697-.522-1.393-1.265-2.558-2.228-3.495-.923-.982-2.067-1.695-3.432-2.14-1.324-.45-2.81-.577-4.455-.382-1.646.194-3.131.673-4.456 1.436-1.324.764-2.448 1.745-3.372 2.946-.923 1.16-1.645 2.499-2.167 4.016-.522 1.516-.783 3.144-.783 4.882s.261 3.304.783 4.697 1.244 2.581 2.167 3.563c.924.942 2.048 1.637 3.372 2.087 1.325.449 2.81.577 4.456.382zm55.132 2.376c-5.571.659-9.999.006-13.286-1.961-3.231-1.974-5.403-5.475-6.517-10.504l12.784-5.804c.501 1.96 1.309 3.435 2.423 4.425 1.17.928 2.841 1.263 5.013 1.006 1.95-.231 3.538-1.008 4.763-2.331 1.281-1.33 1.922-3.06 1.922-5.192 0-.056 0-.14 0-.252-.056-2.125-.696-3.732-1.922-4.821-1.225-1.145-3.454-1.526-6.684-1.144l-7.103.841v-3.787l7.688-12.1-17.296 2.0471v-13.8829l36.43-4.3119v6.7312l-9.108 13.867c1.56.152 3.064.563 4.512 1.2329 1.449.67 2.702 1.6435 3.76 2.9206 1.059 1.2209 1.894 2.749 2.507 4.583.668 1.828 1.003 3.976 1.003 6.444 0 2.749-.446 5.382-1.337 7.9-.836 2.51-2.117 4.737-3.844 6.681-1.727 1.943-3.899 3.574-6.517 4.894-2.618 1.263-5.682 2.103-9.191 2.518zm44.486-5.433c-6.629.784-11.698-1.084-15.207-5.605-3.454-4.527-5.181-11.278-5.181-20.2531 0-4.207.446-8.1021 1.337-11.6853s2.173-6.7078 3.844-9.3736c1.727-2.6725 3.843-4.8582 6.35-6.5572 2.562-1.7056 5.515-2.7562 8.857-3.1518s6.294-.0719 8.857.9711c2.562.9868 4.679 2.6434 6.35 4.9698 1.727 2.2637 3.008 5.113 3.844 8.548.891 3.3722 1.337 7.1899 1.337 11.4529 0 8.9752-1.755 16.1382-5.264 21.4892-3.454 5.345-8.495 8.41-15.124 9.195zm0-13.126c1.894-.224 3.314-1.739 4.261-4.543 1.003-2.867 1.504-6.629 1.504-11.2845 0-4.7118-.501-8.3546-1.504-10.9284-.947-2.5803-2.367-3.7584-4.261-3.5343-1.894.2242-3.342 1.7699-4.345 4.6371-.947 2.8045-1.42 6.5346-1.42 11.1903 0 4.6558.473 8.3018 1.42 10.9378 1.003 2.574 2.451 3.749 4.345 3.525zm59.729 6.056c-6.629.785-11.698-1.083-15.207-5.604-3.454-4.528-5.18-11.279-5.18-20.2535 0-4.207.445-8.1021 1.336-11.6853.892-3.5832 2.173-6.7078 3.844-9.3737 1.727-2.6724 3.844-4.8581 6.35-6.5571 2.563-1.7056 5.515-2.7562 8.857-3.1518s6.295-.0719 8.857.971c2.562.9869 4.679 2.6435 6.35 4.9699 1.727 2.2637 3.008 5.113 3.844 8.5479.891 3.3723 1.337 7.19 1.337 11.453 0 8.9748-1.755 16.1376-5.264 21.4896-3.454 5.345-8.495 8.41-15.124 9.194zm0-13.126c1.894-.224 3.315-1.738 4.262-4.543 1.002-2.8668 1.504-6.6283 1.504-11.2839 0-4.7118-.502-8.3546-1.504-10.9284-.947-2.5803-2.368-3.7584-4.262-3.5343-1.894.2242-3.342 1.7699-4.345 4.6371-.947 2.8045-1.42 6.5346-1.42 11.1903s.473 8.3018 1.42 10.9382c1.003 2.574 2.451 3.749 4.345 3.524zm43.655 7.959c-6.629.785-11.698-1.083-15.207-5.604-3.454-4.527-5.181-11.2786-5.181-20.2534 0-4.207.446-8.102 1.337-11.6853.891-3.5832 2.173-6.7078 3.844-9.3736 1.726-2.6725 3.843-4.8582 6.35-6.5572 2.562-1.7056 5.515-2.7562 8.857-3.1518 3.342-.3955 6.294-.0719 8.857.9711 2.562.9868 4.679 2.6435 6.35 4.9698 1.727 2.2637 3.008 5.113 3.844 8.548.891 3.3722 1.336 7.1899 1.336 11.4529 0 8.9749-1.754 16.138-5.264 21.4895-3.453 5.345-8.494 8.41-15.123 9.194zm0-13.125c1.894-.225 3.314-1.7389 4.261-4.5435 1.003-2.8672 1.504-6.6286 1.504-11.2843 0-4.7118-.501-8.3546-1.504-10.9283-.947-2.5804-2.367-3.7585-4.261-3.5343-1.894.2241-3.342 1.7698-4.345 4.637-.947 2.8045-1.421 6.5346-1.421 11.1903s.474 8.3018 1.421 10.9383c1.003 2.5737 2.451 3.7488 4.345 3.5248zm43.654 7.958c-6.628.785-11.697-1.083-15.207-5.604-3.453-4.5273-5.18-11.2784-5.18-20.2533 0-4.2069.445-8.102 1.337-11.6852.891-3.5833 2.172-6.7078 3.843-9.3737 1.727-2.6724 3.844-4.8582 6.35-6.5572 2.563-1.7056 5.515-2.7561 8.857-3.1517 3.343-.3956 6.295-.0719 8.857.971 2.563.9869 4.679 2.6435 6.351 4.9699 1.726 2.2637 3.008 5.113 3.843 8.5479.891 3.3723 1.337 7.1899 1.337 11.453 0 8.9748-1.755 16.138-5.264 21.4895-3.454 5.3448-8.495 8.4098-15.124 9.1938zm0-13.1253c1.894-.2241 3.315-1.7385 4.262-4.543 1.002-2.8672 1.504-6.6287 1.504-11.2844 0-4.7117-.502-8.3545-1.504-10.9283-.947-2.5804-2.368-3.7585-4.262-3.5343s-3.342 1.7698-4.345 4.6371c-.946 2.8045-1.42 6.5346-1.42 11.1903s.474 8.3017 1.42 10.9382c1.003 2.5738 2.451 3.7486 4.345 3.5244zm41.175-27.5334 15.766-1.8661c1.501-1.4657 2.502-2.7322 3.003-3.7994.556-1.1298.89-1.9533 1.001-2.4705.167-.6917.139-1.1924-.083-1.5021-.223-.1417-.64-.2603-1.252-.3559-.611-.0956-1.334-.01-2.169.2567-1.39.3886-2.446 1.4096-3.169 3.0632l-11.095-3.5589c1.223-3.0008 3.003-5.5354 5.339-7.6039 2.391-2.075 5.144-3.4368 8.258-4.0854 2.725-.6025 5.311-.5726 7.758.0898 2.669.636 4.783 2.0099 6.34 4.1216 2.169 2.8793 2.808 6.4156 1.918 10.6089-.167 1.1398-.5 2.2993-1.001 3.4785l4.255-.5035v5.712l-7.675.9083c-.556.6818-1.14 1.395-1.752 2.1394-.556.6818-1.223 1.3768-2.002 2.0849l11.429-1.3526v5.712l-18.936 2.2412c-.834.8827-1.446 1.6551-1.835 2.3172-.334.6555-.557 1.1578-.668 1.507-.111.2932-.167.6637-.167 1.1117 0 .392.139.8516.417 1.3787.557 1.1101 1.78 1.6093 3.671 1.4976 1.39-.0526 2.697-.5713 3.92-1.5561 1.28-.9914 2.392-2.299 3.337-3.9229l10.427 5.2338c-2.168 3.6727-4.754 6.5828-7.757 8.7302-3.003 2.0915-6.535 3.3773-10.594 3.8583-3.17.207-6.007-.325-8.509-1.5973-2.447-1.3344-4.282-3.2172-5.506-5.6484-1.724-3.4919-2.002-7.239-.834-11.2412l-1.835.2172v-5.712l4.755-.5628c1.001-1.4065 2.169-2.8047 3.503-4.1947l-8.258.9775z" fill="#ff4020"/><g filter="url(#b)"><path d="m0 0h584.118v91.234h-584.118z" fill="#00cfa6" transform="matrix(.993068 -.117537 0 1 43.9307 209.32)"/></g><path d="m138.09 246.237c0 2.014-.367 3.886-1.1 5.616-.733 1.731-1.799 3.283-3.198 4.657-1.367 1.37-3.049 2.525-5.048 3.466-1.966.904-4.182 1.535-6.648 1.894v4.48l-7.847.928v-4.479c-2.465.225-4.698.12-6.697-.314-1.966-.472-3.649-1.23-5.048-2.272-1.366-1.046-2.416-2.348-3.149-3.905-.7331-1.557-1.0996-3.343-1.0996-5.356 0-1.946.3665-3.751 1.0996-5.415.733-1.697 1.783-3.197 3.149-4.499 1.399-1.307 3.082-2.395 5.048-3.265s4.198-1.47 6.697-1.8v-4.227l7.847-.929v4.228c2.499-.263 4.732-.191 6.698.214 1.965.404 3.631 1.096 4.998 2.076 1.399.975 2.465 2.224 3.198 3.748.733 1.49 1.1 3.208 1.1 5.154zm-32.238 4.168c0 4.396 2.799 6.262 8.397 5.6v-13.237c-2.832.335-4.948 1.156-6.347 2.462-1.366 1.303-2.05 3.028-2.05 5.175zm16.244 4.671c5.598-.663 8.397-3.192 8.397-7.587 0-2.148-.7-3.709-2.099-4.684-1.366-.979-3.466-1.301-6.298-.966zm44.072-16.943v.151c0 3.456-1.067 6.35-3.199 8.683-2.099 2.329-5.165 3.765-9.196 4.309l-3.099.417v9.764l-7.847.929v-32.513l10.996-1.301c4.031-.477 7.08.135 9.146 1.836 2.099 1.698 3.165 4.273 3.199 7.725zm-12.545 6.115c1.599-.189 2.815-.719 3.648-1.589.867-.908 1.3-2 1.3-3.275s-.433-2.264-1.3-2.966c-.833-.707-2.049-.966-3.648-.776l-2.949.349v8.606zm17.269-17.696 7.847-.929v32.513l-7.847.928zm27.079 8.874c3.765-.446 6.714.094 8.846 1.62 2.166 1.522 3.249 3.91 3.249 7.165 0 1.577-.283 3.036-.85 4.379-.533 1.304-1.333 2.472-2.399 3.505-1.033.994-2.299 1.815-3.798 2.462-1.5.648-3.182 1.082-5.048 1.302l-12.046 1.426v-32.513l21.592-2.555v6.945l-13.845 1.639v5.133zm4.248 9.714c0-.034 0-.084 0-.151 0-.906-.317-1.59-.95-2.052-.633-.496-1.582-.668-2.849-.518l-4.748.562v6.341l4.748-.562c1.267-.15 2.2-.545 2.799-1.187.633-.645.967-1.456 1-2.433zm32.738-.402v6.744l-19.893 2.354v-32.513l19.293-2.283v6.744l-11.446 1.355v5.737l10.346-1.224v6.794l-10.346 1.225v6.492zm28.877-22.141-9.247 1.095v25.466l-7.847.929v-25.467l-9.196 1.089v-7.046l26.29-3.112zm45.919 13.54v14.091l-7.347.87v-7.549l-17.292 2.047v7.549l-7.346.869v-14.091l4.647-.55c.767-2.674 1.333-5.627 1.7-8.858.366-3.23.599-6.982.699-11.255l.15-6.208 21.041-2.49v26.019zm-17.342-16.92c-.133 4.041-.367 7.625-.7 10.752-.3 3.088-.783 5.913-1.449 8.475l8.046-.952v-18.973zm36.744 21.77c-2.566.304-4.882.142-6.947-.486-2.066-.628-3.832-1.61-5.298-2.946-1.466-1.37-2.599-3.031-3.398-4.983-.767-1.99-1.15-4.175-1.15-6.557 0-2.383.417-4.646 1.25-6.791.833-2.179 1.999-4.112 3.498-5.799 1.499-1.721 3.265-3.138 5.298-4.251 2.065-1.117 4.314-1.819 6.747-2.107 2.598-.307 4.931-.147 6.996.48 2.099.624 3.882 1.621 5.348 2.991 1.466 1.336 2.582 2.999 3.348 4.989.8 1.952 1.2 4.119 1.2 6.501s-.417 4.662-1.249 6.841c-.833 2.145-2 4.078-3.499 5.799-1.499 1.687-3.282 3.089-5.348 4.206-2.065 1.117-4.331 1.821-6.796 2.113zm0-6.995c1.366-.162 2.598-.56 3.698-1.193 1.133-.637 2.082-1.437 2.849-2.4.799-1.001 1.416-2.131 1.849-3.39s.649-2.61.649-4.053c0-1.442-.216-2.742-.649-3.898-.433-1.157-1.05-2.124-1.849-2.902-.767-.815-1.716-1.407-2.849-1.776-1.1-.373-2.332-.479-3.698-.318-1.366.162-2.599.56-3.699 1.193-1.099.633-2.032 1.448-2.799 2.445-.766.963-1.366 2.074-1.799 3.333s-.649 2.61-.649 4.053.216 2.742.649 3.899c.433 1.156 1.033 2.142 1.799 2.957.767.782 1.7 1.359 2.799 1.733 1.1.373 2.333.478 3.699.317zm49.493 1.531c-4.624.547-8.301.004-11.029-1.629-2.682-1.638-4.485-4.544-5.41-8.719l10.612-4.818c.417 1.627 1.087 2.852 2.012 3.674.971.769 2.358 1.048 4.161.834 1.619-.191 2.937-.836 3.954-1.935 1.064-1.103 1.595-2.54 1.595-4.309 0-.047 0-.117 0-.21-.046-1.764-.578-3.098-1.595-4.002-1.017-.95-2.867-1.267-5.549-.949l-5.895.697v-3.143l6.381-10.044-14.358 1.699v-11.524l30.241-3.58v5.588l-7.56 11.511c1.295.126 2.543.468 3.745 1.024 1.203.556 2.243 1.364 3.122 2.424.878 1.014 1.572 2.282 2.081 3.805.554 1.517.832 3.3.832 5.349 0 2.282-.37 4.467-1.11 6.557-.693 2.085-1.757 3.933-3.19 5.546-1.434 1.614-3.237 2.968-5.411 4.063-2.173 1.049-4.716 1.746-7.629 2.091zm50.272-6.09c-5.502.651-9.71-.9-12.624-4.652-2.866-3.759-4.3-9.363-4.3-16.813 0-3.492.37-6.726 1.11-9.7.74-2.975 1.803-5.568 3.19-7.781 1.434-2.219 3.191-4.033 5.272-5.444 2.127-1.415 4.578-2.288 7.352-2.616 2.775-.328 5.225-.06 7.352.806 2.127.819 3.885 2.195 5.272 4.126 1.433 1.879 2.497 4.244 3.19 7.095.74 2.8 1.11 5.969 1.11 9.508 0 7.45-1.456 13.396-4.37 17.838-2.866 4.437-7.051 6.981-12.554 7.633zm0-10.896c1.572-.186 2.751-1.443 3.538-3.771.832-2.38 1.248-5.503 1.248-9.368 0-3.911-.416-6.935-1.248-9.071-.787-2.142-1.966-3.12-3.538-2.934s-2.774 1.469-3.607 3.849c-.786 2.328-1.179 5.425-1.179 9.289 0 3.865.393 6.892 1.179 9.08.833 2.137 2.035 3.112 3.607 2.926zm36.239 6.607c-5.503.651-9.711-.9-12.624-4.653-2.867-3.758-4.301-9.362-4.301-16.812 0-3.492.37-6.726 1.11-9.7.74-2.975 1.804-5.568 3.191-7.781 1.433-2.219 3.19-4.033 5.271-5.444 2.127-1.416 4.578-2.288 7.353-2.616 2.774-.328 5.225-.06 7.352.806 2.127.819 3.884 2.194 5.271 4.126 1.434 1.879 2.497 4.244 3.191 7.095.74 2.8 1.11 5.969 1.11 9.508 0 7.45-1.457 13.396-4.37 17.838-2.867 4.437-7.052 6.981-12.554 7.633zm0-10.896c1.572-.186 2.751-1.443 3.537-3.771.832-2.38 1.248-5.503 1.248-9.368 0-3.911-.416-6.935-1.248-9.071-.786-2.142-1.965-3.12-3.537-2.934-1.573.186-2.775 1.469-3.607 3.849-.786 2.328-1.179 5.424-1.179 9.289s.393 6.892 1.179 9.08c.832 2.137 2.034 3.112 3.607 2.926zm36.238 6.607c-5.503.651-9.711-.9-12.624-4.653-2.867-3.758-4.3-9.362-4.3-16.812 0-3.492.37-6.726 1.11-9.7.739-2.975 1.803-5.569 3.19-7.782 1.434-2.218 3.191-4.032 5.272-5.443 2.127-1.416 4.577-2.288 7.352-2.616 2.774-.328 5.225-.06 7.352.806 2.127.819 3.884 2.194 5.272 4.126 1.433 1.879 2.496 4.244 3.19 7.095.74 2.8 1.11 5.969 1.11 9.508 0 7.45-1.457 13.396-4.37 17.838-2.867 4.437-7.052 6.981-12.554 7.633zm0-10.896c1.572-.186 2.751-1.443 3.537-3.771.833-2.381 1.249-5.503 1.249-9.368 0-3.911-.416-6.935-1.249-9.072-.786-2.142-1.965-3.12-3.537-2.933-1.572.186-2.775 1.469-3.607 3.849-.786 2.328-1.179 5.424-1.179 9.289s.393 6.892 1.179 9.08c.832 2.137 2.035 3.112 3.607 2.926zm34.267-23.804 13.514-1.6c1.287-1.256 2.145-2.342 2.574-3.256.477-.969.763-1.675.858-2.118.143-.593.119-1.022-.071-1.287-.191-.122-.549-.224-1.073-.305-.524-.082-1.144-.009-1.859.22-1.192.333-2.097 1.208-2.717 2.625l-9.51-3.05c1.049-2.572 2.574-4.745 4.576-6.518 2.05-1.779 4.41-2.946 7.079-3.502 2.336-.516 4.552-.491 6.65.077 2.288.545 4.099 1.723 5.434 3.533 1.859 2.468 2.407 5.499 1.644 9.093-.143.977-.429 1.971-.858 2.982l3.647-.432v4.896l-6.578.779c-.477.584-.977 1.196-1.502 1.834-.476.584-1.049 1.18-1.716 1.787l9.796-1.16v4.896l-16.231 1.921c-.715.757-1.239 1.419-1.573 1.987-.286.561-.477.992-.572 1.291-.095.252-.143.569-.143.953 0 .336.119.73.358 1.182.476.951 1.525 1.379 3.146 1.284 1.191-.046 2.311-.49 3.36-1.334 1.096-.85 2.05-1.971 2.86-3.363l8.938 4.486c-1.859 3.148-4.076 5.643-6.65 7.483-2.574 1.793-5.601 2.895-9.08 3.307-2.717.178-5.148-.278-7.294-1.369-2.097-1.143-3.67-2.757-4.719-4.841-1.477-2.993-1.716-6.205-.715-9.635l-1.573.186v-4.896l4.076-.483c.858-1.205 1.859-2.404 3.003-3.595l-7.079.838z" fill="#fff"/></svg>