<svg fill="none" height="55" viewBox="0 0 56 55" width="56" xmlns="http://www.w3.org/2000/svg" xmlns:xlink="http://www.w3.org/1999/xlink"><clipPath id="a"><path d="m.986816.429932h54.57v54.57h-54.57z"/></clipPath><g clip-path="url(#a)" fill="#051115"><path d="m21.4498 9.52493c-2.5079 0-4.5475-2.03955-4.5475-4.5475 0-2.50794 2.0396-4.547498 4.5475-4.547498 2.508 0 4.5475 2.039558 4.5475 4.547498 0 2.50795-2.0395 4.5475-4.5475 4.5475zm0-6.82125c-1.2528 0-2.2737 1.02092-2.2737 2.27375 0 1.25284 1.0209 2.27375 2.2737 2.27375 1.2529 0 2.2738-1.02091 2.2738-2.27375 0-1.25283-1.0209-2.27375-2.2738-2.27375z"/><path d="m15.2892 26.1008c-.291 0-.5821-.1114-.8049-.3319l-9.75438-9.7544c-.21146-.2137-.33197-.5025-.33197-.8049v-6.82126c0-.62756.50932-1.13688 1.13687-1.13688.62756 0 1.13688.50932 1.13688 1.13688v6.35056l9.4224 9.4224c.4434.4434.4434 1.1642 0 1.6076-.2228.2205-.5139.3319-.8049.3319z"/><path d="m5.53432 9.52493c-2.50795 0-4.547504-2.03955-4.547504-4.5475 0-2.50794 2.039554-4.547498 4.547504-4.547498 2.50794 0 4.54748 2.039558 4.54748 4.547498 0 2.50795-2.03954 4.5475-4.54748 4.5475zm0-6.82125c-1.25284 0-2.27375 1.02092-2.27375 2.27375 0 1.25284 1.02091 2.27375 2.27375 2.27375 1.25283 0 2.27375-1.02091 2.27375-2.27375 0-1.25283-1.02092-2.27375-2.27375-2.27375z"/><path d="m21.4504 23.1677c-.6276 0-1.1369-.5093-1.1369-1.1369v-13.64246c0-.62756.5093-1.13688 1.1369-1.13688.6275 0 1.1368.50932 1.1368 1.13688v13.64246c0 .6276-.5093 1.1369-1.1368 1.1369z"/><path d="m28.6809 25.0322c-.291 0-.5821-.1114-.8049-.332-.4434-.4434-.4434-1.1641 0-1.6075l8.3537-8.3538v-6.35056c0-.62756.5094-1.13688 1.1369-1.13688.6276 0 1.1369.50932 1.1369 1.13688v6.82126c0 .3024-.1205.5912-.332.8049l-8.6857 8.6857c-.2228.2206-.5139.332-.8049.332z"/><path d="m37.3673 9.52493c-2.5079 0-4.5475-2.03955-4.5475-4.5475 0-2.50794 2.0396-4.547498 4.5475-4.547498 2.508 0 4.5475 2.039558 4.5475 4.547498 0 2.50795-2.0395 4.5475-4.5475 4.5475zm0-6.82125c-1.2528 0-2.2737 1.02092-2.2737 2.27375 0 1.25284 1.0209 2.27375 2.2737 2.27375 1.2529 0 2.2738-1.02091 2.2738-2.27375 0-1.25283-1.0209-2.27375-2.2738-2.27375z"/><path d="m41.6954 54.3156c-2.2147 0-4.7795-.7003-7.7262-2.0986-3.2901-1.5598-4.875-1.4984-5.9209-1.4552-.8458.0386-1.7235.0682-2.5921-.8004-.3046-.3047-1.6894-1.9645 1.0323-4.6862 1.3575-1.3574 3.2197-1.7485 4.8363-1.7712l-9.427-9.427c-1.2892-1.2892-1.2869-3.3902.0068-4.6839 1.2915-1.2915 3.3925-1.2961 4.684-.0046l3.9176 3.9177c.1547-.3092.3616-.598.6185-.8549.9004-.9004 2.1919-1.1733 3.3242-.8231.1592-.4502.4207-.8732.7799-1.2347 1.2324-1.2346 3.2037-1.2938 4.5043-.1728.1569-.316.3684-.6071.623-.8617 1.2938-1.2915 3.3925-1.2961 4.684-.0046l6.1391 6.1391c3.8494 3.8495 3.4265 9.4225-1.03 13.8926-.0023.0023-.0046.0046-.0068.0069-.0091.0091-.0205.0204-.0296.0318l-2.5489 2.5489c-1.5848 1.5598-3.5311 2.3419-5.8685 2.3419zm-13.0309-5.8435c1.2415 0 3.1492.2046 6.2801 1.6894 6.7872 3.2196 9.5384 1.653 11.0209.1933l2.5602-2.5603c.0068-.0068.0137-.0136.0182-.0182 2.708-2.7353 4.5771-7.1304 1.0482-10.6593l-6.1573-6.1573c-.4047-.4025-1.0596-.4002-1.4688.0045-.4071.407-.4093 1.0641-.0069 1.4689l1.5348 1.5347c.2228.2229.332.5139.332.805 0 .291-.1114.582-.332.8049-.4434.4433-1.1641.4433-1.6075 0l-3.5812-3.5812c-.4047-.4002-1.0596-.3979-1.4666.0068-.407.407-.4092 1.0641-.0068 1.4689l2.558 2.5579c.2228.2229.332.5139.332.8049 0 .2911-.1115.5821-.332.805-.4434.4433-1.1642.4433-1.6076 0l-3.5811-3.5812c-.4047-.4025-1.0596-.3979-1.4666.0068-.407.407-.4093 1.0641-.0068 1.4689l2.558 2.5579c.2228.2229.3319.5139.3319.8049 0 .2911-.1114.5821-.3319.8049-.4434.4434-1.1642.4434-1.6076 0l-8.6971-8.697c-.4024-.4025-1.0595-.4002-1.4688.0045-.407.407-.4093 1.0641-.0068 1.4688l11.7666 11.7667c.3684.3683.4389.9368.1728 1.3824-.266.4457-.8049.6572-1.2983.5116-.0432-.0113-4.1177-1.18-6.0527.7526-.8799.88-1.0095 1.4211-.9868 1.5439.0978.0682.116.091.8504.0637.2114-.0182.4456-.0273.7071-.0273z"/><path d="m16.4255 37.2647c-.2638 0-.5412-.091-.7458-.2592-2.1123-1.7326-3.3242-4.2906-3.3242-7.0168 0-5.0159 4.0791-9.095 9.095-9.095 1.346 0 2.6193.2819 3.788.839.5662.2706.8072.9481.5366 1.5166-.2705.5661-.9436.8072-1.5165.5366-.8595-.4116-1.8031-.6185-2.8081-.6185-3.7608 0-6.8213 3.0605-6.8213 6.8213 0 2.0191.8891 3.9176 2.442 5.216.2888.2069.4798.5434.4798.9231 0 .6298-.498 1.1369-1.1255 1.1369z"/></g></svg>