<svg fill="none" height="41" viewBox="0 0 105 41" width="105" xmlns="http://www.w3.org/2000/svg" xmlns:xlink="http://www.w3.org/1999/xlink"><clipPath id="a"><path d="m0 0h105v41h-105z"/></clipPath><g clip-path="url(#a)"><g fill="#ff2400"><path d="m28.4205 4.13871c0 .90673-.3711 1.77427-1.0322 2.41708-.6611.6402-1.56 1.0008-2.4954 1.0008-.9355 0-1.8318-.3606-2.4955-1.0008-.6611-.6402-1.0322-1.51035-1.0322-2.41708s.3711-1.77427 1.0322-2.41708c.6611-.6402 1.5574-1.000805 2.4955-1.000805.9354 0 1.8317.360605 2.4954 1.000805.6585.6402 1.0322 1.51035 1.0322 2.41708z"/><path d="m28.4205 9.58685h-7.0553v16.43355h7.0553z"/><path d="m62.7324 16.5324v-6.94555h-11.2309v6.94555z"/><path d="m9.82337 19.7467c5.25223 0 9.50893-4.2593 9.50893-9.5115 0-5.25228-4.2567-9.511567-9.50893-9.511567-5.25224 0-9.508917 4.259287-9.508917 9.511567v15.7854h6.880187v-6.6423-9.1275c0-.0052 0-.0104 0-.0156 0-1.45289 1.17849-2.63139 2.63135-2.63139 1.45281 0 2.63131 1.1785 2.63131 2.63139 0 1.4528-1.1785 2.6313-2.63131 2.6313-.20905 0-.41287-.0235-.60623-.0705v6.9324c.19598.0105.39979.0183.60361.0183z"/><path d="m95.3253 19.7465c5.2527 0 9.5087-4.2593 9.5087-9.5116 0-5.25223-4.256-9.511511-9.5087-9.511511-5.2522 0-9.5089 4.259281-9.5089 9.511511v15.7855h6.8802v-6.2739-9.5116c0-1.45284 1.1785-2.63133 2.6313-2.63133 1.4529 0 2.6314 1.17849 2.6314 2.63133 0 1.4529-1.1785 2.6314-2.6314 2.6314-.209 0-.4128-.0235-.6062-.0706v6.9325c.1986.0104.3998.0183.6036.0183z"/><path d="m49.4711 10.2324v15.7855h-6.8802v-15.5843c0-.69772-.277-1.36666-.7709-1.86053-.4938-.49387-1.1628-.77085-1.8605-.77085s-1.3666.27698-1.8605.77085c-.4938.49387-.7708 1.16281-.7708 1.86053v.0209 8.9209 6.6425h-6.8802v-15.7855c0-5.25229 4.2567-9.511575 9.5089-9.511575 5.2549 0 9.5142 4.259285 9.5142 9.511575z"/><path d="m64.7654 16.5088v-15.44844h6.8802v6.3027 8.90794.0339c0 .6977.2769 1.3667.7708 1.8605.4939.4939 1.1628.7709 1.8605.7709s1.3666-.277 1.8605-.7709c.4939-.4938.7709-1.1628.7709-1.8605v-15.24454h6.8802v15.44844c0 5.2522-4.2593 9.5115-9.509 9.5115-5.2574 0-9.5141-4.2593-9.5141-9.5115z"/></g><path d="m43.3515 34.0033c.1908-.1803.2875-.4155.2875-.7055 0-.0079 0-.0183 0-.034s0-.0261 0-.034c0-.6349-.3816-.9511-1.1472-.9511h-.5853v1.9964h.5853c.3815-.0026.6663-.0915.8597-.2718z" fill="#00cfa6"/><path d="m42.7897 35.3517-.8832.0105v2.1453h.8257c.473 0 .8179-.0941 1.0322-.2796.2142-.1881.3214-.452.3214-.797 0-.3214-.1019-.5801-.3084-.7786-.209-.2013-.5382-.3006-.9877-.3006z" fill="#00cfa6"/><path d="m104.604 28.9209h-104.289547v6.1773c.002613.7578.15156 1.5103.438996 2.2106.290051.7003.710751 1.3353 1.243811 1.871.53307.5356 1.16281.959 1.85789 1.249.69507.2874 1.4398.4364 2.18974.4338h93.05621c1.5159 0 2.9709-.6063 4.0449-1.6854 1.074-1.0792 1.683-2.5478 1.688-4.079v-6.1773zm-59.1673 7.5308c0 .6716-.2299 1.1994-.6872 1.5757-.4599.3789-1.1393.567-2.0408.567h-2.1558v-7.408h2.0644c.7578 0 1.3352.1646 1.7376.4939.4025.3292.601.7917.601 1.3875v.0471c0 .3527-.0757.6506-.2299.8936-.1542.2456-.3737.4442-.6663.5958.4128.115.7447.324.9982.6245.2534.3031.3788.6925.3788 1.1759zm9.1379 2.1427h-4.3455v-7.408h4.2305v1.2282h-2.8194v1.7664h2.5451v1.2386h-2.5451v1.9493h2.9344zm10.0211-6.0884h-2.2812v6.0884h-1.398v-6.0884h-2.2707v-1.3196h5.9499z" fill="#00cfa6"/></g></svg>